<?xml version="1.0" encoding="UTF-8"?>
<!-- Generator: visioncortex VTracer 0.6.12 -->
<svg version="1.1" xmlns="http://www.w3.org/2000/svg" width="614" height="614">
<path d="M0 0 C4.587312 3.928437 8.848381 8.145423 13.107153 12.42407 C14.064019 13.378217 15.021307 14.331939 15.978979 15.285276 C18.542804 17.840099 21.100403 20.401067 23.656532 22.963588 C26.342729 25.654895 29.033856 28.341267 31.724173 31.028456 C36.228639 35.529302 40.728913 40.034308 45.226782 44.541746 C50.429279 49.755184 55.639022 54.961297 60.852471 60.163782 C65.340411 64.642663 69.824463 69.125409 74.305254 73.611443 C76.976867 76.286175 79.649817 78.959535 82.32629 81.629406 C85.298042 84.594336 88.261595 87.567328 91.22434 90.541258 C92.114081 91.42695 93.003821 92.312641 93.920523 93.225172 C94.720799 94.031088 95.521075 94.837004 96.345602 95.667341 C97.046626 96.36912 97.747651 97.070898 98.469918 97.793942 C99.954077 99.529783 99.954077 99.529783 99.954077 101.529783 C100.614077 101.529783 101.274077 101.529783 101.954077 101.529783 C103.140957 102.90913 104.325175 104.292623 105.442358 105.729002 C108.413816 109.268646 111.815068 112.399704 115.153296 115.588377 C133.788598 133.524323 146.697339 154.648048 147.266577 181.342283 C147.18214 193.489149 144.561689 205.715102 138.954077 216.529783 C135.227691 215.007768 133.24644 212.846627 130.622046 209.830564 C125.065403 203.5971 119.215986 197.668752 113.317358 191.760252 C112.834683 191.276714 112.352009 190.793176 111.854708 190.294985 C109.351307 187.788673 106.845337 185.284952 104.337622 182.782957 C101.769283 180.220345 99.205504 177.653225 96.643008 175.084771 C94.641498 173.079623 92.637581 171.076892 90.632961 169.074852 C89.233718 167.676584 87.836459 166.276332 86.43926 164.87602 C81.960273 160.413358 77.421506 156.098941 72.625387 151.978712 C70.647394 150.263907 68.786382 148.461399 66.954077 146.592283 C66.294077 145.924549 65.634077 145.256814 64.954077 144.568846 C63.620743 143.209471 62.28741 141.850096 60.954077 140.490721 C60.294077 139.822986 59.634077 139.155252 58.954077 138.467283 C58.665327 138.172732 58.665327 138.172732 57.204077 136.682127 C55.301937 134.862545 53.361902 133.154429 51.364187 131.442869 C46.751558 127.414221 42.443787 123.124248 38.142309 118.768064 C37.300496 117.919972 36.458683 117.07188 35.59136 116.198088 C33.775604 114.368553 31.960922 112.537953 30.147213 110.706388 C27.270286 107.801337 24.387701 104.901943 21.503958 102.00366 C20.511594 101.006154 19.519238 100.008642 18.526889 99.011122 C18.030311 98.511958 17.533733 98.012794 17.022107 97.498505 C10.322093 90.762618 3.626936 84.021959 -3.057886 77.270994 C-7.58485 72.69933 -12.119069 68.134995 -16.661412 63.57861 C-19.056501 61.175507 -21.44783 58.768923 -23.830173 56.353178 C-26.492833 53.65655 -29.167896 50.972809 -31.845972 48.291502 C-32.616721 47.504801 -33.387469 46.718101 -34.181574 45.90756 C-45.283948 34.865674 -57.733379 28.243252 -73.545923 28.029783 C-85.334563 28.175907 -95.41383 31.756686 -105.045923 38.529783 C-105.693033 38.980955 -106.340142 39.432127 -107.006861 39.896971 C-116.585237 47.300345 -121.368557 59.859504 -123.045923 71.529783 C-123.142346 73.568902 -123.193656 75.610501 -123.207056 77.651854 C-123.216664 78.840389 -123.226271 80.028925 -123.23617 81.253477 C-123.238295 81.889458 -123.238295 81.889458 -123.249048 85.107908 C-123.251876 85.762911 -123.254703 86.417913 -123.257616 87.092764 C-123.272556 90.560218 -123.281818 94.027632 -123.286158 97.495115 C-123.29163 101.049947 -123.315646 104.604394 -123.34413 108.159105 C-123.362888 110.916594 -123.367969 113.673992 -123.369493 116.43154 C-123.373935 118.371173 -123.392515 120.310757 -123.411463 122.250303 C-123.382808 133.719103 -121.395548 143.986258 -113.18313 152.449461 C-107.576804 157.5872 -101.847424 161.118138 -95.045923 164.467283 C-92.996335 165.508735 -90.946857 166.550403 -88.897486 167.592283 C-86.947039 168.571598 -84.996523 169.550775 -83.045923 170.529783 C-65.535088 179.410945 -48.386805 189.207519 -33.045923 201.529783 C-32.013384 202.348338 -30.980845 203.166893 -29.917017 204.010252 C-21.342558 210.898291 -21.342558 210.898291 -20.545923 215.279783 C-21.15419 219.233514 -22.67114 220.542701 -25.709009 223.017576 C-30.373114 226.035699 -35.671361 227.507473 -40.920923 229.217283 C-43.440612 230.078749 -45.957783 230.944857 -48.471704 231.822752 C-48.789184 231.933385 -48.789184 231.933385 -50.395823 232.493254 C-105.696761 251.984991 -105.696761 251.984991 -118.045923 274.529783 C-122.359857 284.213048 -123.208963 293.012527 -123.249048 303.506346 C-123.251898 304.087164 -123.251898 304.087164 -123.266321 307.026457 C-123.275752 309.482472 -123.282297 311.938499 -123.286158 314.394529 C-123.295835 318.120833 -123.326866 321.846578 -123.358423 325.572752 C-123.364957 327.96728 -123.370206 330.361812 -123.374048 332.756346 C-123.386395 333.856772 -123.398742 334.957198 -123.411463 336.090971 C-123.378058 347.899182 -120.990813 357.88322 -114.045923 367.529783 C-113.492915 368.301932 -112.939908 369.07408 -112.370142 369.869627 C-103.440685 381.055349 -89.943268 386.636512 -76.045923 388.529783 C-53.105148 390.843935 -28.169464 383.16136 -10.232935 368.792723 C-2.758296 362.62108 3.988516 355.745046 10.809546 348.869627 C12.205859 347.469575 13.602621 346.06997 14.999807 344.67079 C18.642273 341.020757 22.278687 337.364755 25.913794 333.707396 C29.637716 329.962864 33.367441 326.224122 37.096655 322.484861 C44.388092 315.172096 51.673138 307.853 58.954077 300.529783 C57.605594 297.09426 56.120212 293.782353 54.491674 290.469481 C46.140935 273.292158 41.777096 255.165422 47.954077 236.529783 C53.044507 223.724523 53.044507 223.724523 57.176733 221.139158 C57.763256 220.938064 58.34978 220.736971 58.954077 220.529783 C59.19062 220.868807 59.19062 220.868807 60.387671 222.584471 C61.04896 223.515174 61.710249 224.445877 62.391577 225.404783 C63.029663 226.309705 63.667749 227.214627 64.325171 228.146971 C71.774309 238.046089 80.930202 246.654722 89.676733 255.385252 C90.990065 256.69926 92.303249 258.013416 93.616293 259.327711 C96.352024 262.064907 99.08953 264.800311 101.828344 267.534422 C105.320435 271.020805 108.808001 274.511675 112.29425 278.0039 C114.999193 280.712473 117.706534 283.41864 120.414585 286.124107 C121.70099 287.409851 122.986668 288.696323 124.271568 289.98357 C130.071744 295.792017 135.837091 301.563511 142.087362 306.892134 C145.904046 310.240471 149.456508 313.869305 153.047827 317.455564 C153.879957 318.284366 154.712087 319.113168 155.569433 319.967085 C157.311909 321.704531 159.053062 323.443304 160.792944 325.183348 C163.468852 327.857046 166.152685 330.52262 168.836889 333.187986 C170.53269 334.880857 172.22802 336.574199 173.922827 338.268064 C174.728934 339.066986 175.535041 339.865908 176.365576 340.689039 C177.100543 341.427083 177.83551 342.165127 178.592749 342.925535 C179.243685 343.575046 179.894621 344.224558 180.565283 344.893751 C181.954077 346.529783 181.954077 346.529783 181.954077 348.529783 C181.273452 349.066033 180.592827 349.602283 179.891577 350.154783 C177.582938 352.021343 176.028956 353.538084 174.172827 355.771971 C168.325155 362.539562 161.857951 368.730563 155.516577 375.029783 C154.199286 376.342049 152.882227 377.654547 151.565405 378.967283 C148.364291 382.157468 145.160058 385.34449 141.954077 388.529783 C138.475233 387.069468 136.597709 385.233979 134.168921 382.373533 C127.627495 374.922125 120.547074 368.015927 113.516577 361.029783 C112.128972 359.647207 110.7416 358.264396 109.354467 356.881346 C106.329431 353.866047 103.30221 350.852963 100.27294 347.841917 C99.16495 346.739581 98.059243 345.63495 96.954077 344.529783 C96.085364 345.407378 95.216652 346.284973 94.321615 347.189161 C86.081266 355.511057 77.830025 363.82202 69.568357 372.122752 C65.322618 376.389249 61.080634 380.659336 56.847387 384.938231 C52.75201 389.077485 48.646567 393.206517 44.53434 397.329029 C42.977349 398.893337 41.423845 400.461126 39.874134 402.032646 C28.367702 413.694334 16.466853 424.49187 1.954077 432.342283 C1.295124 432.703543 0.636171 433.064803 -0.042749 433.43701 C-27.045763 447.909929 -61.347093 454.134014 -91.237329 445.713377 C-92.494165 445.322791 -93.751001 444.932205 -95.045923 444.529783 C-96.209947 444.19076 -97.37397 443.851736 -98.573267 443.502439 C-114.223337 438.465017 -128.563243 430.151161 -141.045923 419.529783 C-141.936665 418.789861 -142.827408 418.049939 -143.745142 417.287596 C-162.178461 401.423086 -175.562005 378.696416 -179.045923 354.529783 C-179.148595 352.25228 -179.203889 349.972362 -179.222925 347.692625 C-179.226211 347.364465 -179.226211 347.364465 -179.242838 345.703779 C-179.262437 343.545519 -179.274211 341.387327 -179.284204 339.229002 C-179.28828 338.483444 -179.292356 337.737885 -179.296555 336.969734 C-179.31737 333.014412 -179.331685 329.059123 -179.341089 325.103758 C-179.352075 321.0675 -179.386395 317.031805 -179.426261 312.995744 C-179.452735 309.851089 -179.460808 306.706562 -179.464371 303.561806 C-179.469167 302.077005 -179.480575 300.592207 -179.499409 299.107517 C-179.661896 285.43592 -177.982554 271.335156 -171.295923 259.154783 C-170.953758 258.502518 -170.611592 257.850252 -170.259058 257.178221 C-167.056271 251.23071 -163.293768 245.781664 -159.045923 240.529783 C-158.4594 239.802752 -157.872876 239.075721 -157.268579 238.326658 C-151.324327 231.263646 -144.444835 225.713081 -136.983423 220.342283 C-136.405843 219.926077 -135.828262 219.509871 -135.233179 219.081053 C-131.299842 216.296774 -127.261207 213.865641 -123.045923 211.529783 C-126.702691 208.480203 -130.49 205.955722 -134.545923 203.467283 C-157.327126 189.058685 -172.299098 169.496604 -178.591745 143.253462 C-179.141637 139.955794 -179.196573 136.798821 -179.222925 133.454832 C-179.229496 132.761251 -179.236068 132.06767 -179.242838 131.353071 C-179.262491 129.064318 -179.274225 126.77563 -179.284204 124.486814 C-179.28828 123.697457 -179.292356 122.908099 -179.296555 122.094822 C-179.317396 117.904932 -179.331698 113.715075 -179.341089 109.525145 C-179.352063 105.247954 -179.386361 100.971297 -179.426261 96.694293 C-179.452739 93.364304 -179.460809 90.034435 -179.464371 86.70435 C-179.469168 85.131062 -179.48058 83.557778 -179.499409 81.984596 C-179.810807 54.2081 -170.122529 29.193169 -150.721704 9.205564 C-110.256315 -31.259825 -44.675189 -36.776184 0 0 Z " fill="#0F2C42" transform="translate(212.04592323303223,95.47021675109863)"/>
<path d="M0 0 C1.592834 1.342978 3.176257 2.6972 4.75 4.0625 C5.569844 4.737969 6.389688 5.413438 7.234375 6.109375 C21.171558 17.968965 30.793371 33.451762 36.625 50.6875 C36.911414 51.53377 37.197827 52.380039 37.49292 53.251953 C41.20999 64.869333 42.064631 76.218361 42.050781 88.363281 C42.054683 89.812354 42.059021 91.261425 42.063766 92.710495 C42.071173 95.73013 42.070979 98.749649 42.065674 101.769287 C42.059891 105.594757 42.076808 109.41974 42.100019 113.24513 C42.114917 116.233583 42.115606 119.221925 42.112509 122.210409 C42.113014 123.618684 42.118099 125.026967 42.128321 126.435205 C42.292272 152.175804 33.926127 173.407631 15.957031 191.953125 C9.208744 198.653904 -4.487698 212.0625 -14.25 212.0625 C-14.25 212.7225 -14.25 213.3825 -14.25 214.0625 C-13.54875 214.312578 -12.8475 214.562656 -12.125 214.820312 C9.477169 224.153859 26.965698 245.811559 35.75 267.0625 C40.57976 279.908219 42.060786 292.578349 42.050781 306.234375 C42.054685 307.568951 42.059023 308.903525 42.063766 310.238098 C42.071167 313.018148 42.070984 315.798071 42.065674 318.578125 C42.061045 321.394043 42.067956 324.209529 42.086182 327.025391 C42.314703 362.663636 35.655893 391.989693 10 418.25 C-7.669255 435.711147 -32.433604 448.392381 -57.25 451.0625 C-57.739844 451.116641 -57.739844 451.116641 -60.21875 451.390625 C-85.148798 453.782902 -108.81247 449.011819 -131.25 438.0625 C-132.245156 437.579102 -133.240313 437.095703 -134.265625 436.597656 C-150.409586 428.271985 -163.218406 415.267912 -175.875 402.5 C-176.889084 401.480882 -177.903406 400.462001 -178.917969 399.443359 C-181.364708 396.985776 -183.808265 394.525058 -186.25 392.0625 C-182.279697 387.298125 -178.131276 382.816503 -173.714844 378.464844 C-173.414273 378.166166 -173.414273 378.166166 -171.893204 376.654678 C-169.993742 374.767307 -168.091056 372.883241 -166.1875 371 C-163.672818 368.51208 -161.161583 366.020752 -158.652344 363.527344 C-158.084507 362.967805 -157.51667 362.408266 -156.931625 361.831772 C-154.310233 359.226389 -151.84364 356.611319 -149.537354 353.720947 C-147.25 351.0625 -147.25 351.0625 -144.25 350.0625 C-143.737275 350.590935 -143.224551 351.11937 -142.696289 351.663818 C-122.343261 372.556889 -101.060554 390.729958 -70.338623 391.304199 C-54.05986 391.367016 -39.304586 387.748646 -27.214844 376.183594 C-17.081885 365.244833 -14.62644 353.038232 -14.753906 338.460938 C-14.753751 337.089568 -14.752253 335.718199 -14.749496 334.346832 C-14.748124 331.494366 -14.760484 328.64241 -14.783447 325.790039 C-14.811884 322.161303 -14.809065 318.533407 -14.796357 314.904608 C-14.789355 312.080159 -14.79724 309.255901 -14.809614 306.431477 C-14.816227 304.451999 -14.812019 302.472495 -14.80751 300.493011 C-14.948006 286.959618 -18.465974 276.123632 -27.6875 266 C-45.553565 249.329434 -72.303666 240.447043 -94.894531 232.020264 C-113.897088 224.91538 -113.897088 224.91538 -116.25 220.0625 C-116.527579 217.30014 -116.627284 215.664043 -115.132812 213.28125 C-94.524834 193.131226 -66.72609 179.335256 -41.230469 166.523438 C-28.244618 159.970577 -20.017143 153.363929 -15.25 139.0625 C-15.140531 136.939013 -15.091009 134.812266 -15.072998 132.686035 C-15.060163 131.366811 -15.047328 130.047586 -15.034103 128.688385 C-15.02593 127.242781 -15.018487 125.797173 -15.011719 124.351562 C-15.007643 123.620325 -15.003568 122.889088 -14.999369 122.135693 C-14.978504 118.256317 -14.964211 114.376978 -14.954834 110.497559 C-14.94384 106.522472 -14.909525 102.547956 -14.869662 98.573069 C-14.843281 95.491192 -14.835123 92.409445 -14.831553 89.327465 C-14.826732 87.864477 -14.815252 86.401493 -14.796515 84.938618 C-14.612953 69.641875 -17.759713 56.294503 -28.351562 44.777344 C-37.699677 35.941228 -49.381486 31.22358 -62.25 31.0625 C-79.819184 32.407407 -91.255953 40.581746 -103.359619 52.831543 C-104.335658 53.80843 -105.312362 54.784654 -106.289673 55.760269 C-108.917714 58.387456 -111.536459 61.023731 -114.153526 63.661844 C-116.898718 66.425902 -119.652517 69.18136 -122.40538 71.937775 C-127.606655 77.148341 -132.80024 82.3665 -137.991048 87.587491 C-143.905362 93.535439 -149.828285 99.474781 -155.751917 105.413446 C-167.927492 117.620305 -180.092311 129.837827 -192.25 142.0625 C-194.249238 139.566248 -196.245372 137.068384 -198.222656 134.554688 C-203.817132 127.548521 -209.834144 121.303378 -216.25 115.0625 C-217.916667 113.395833 -219.583333 111.729167 -221.25 110.0625 C-222.013125 109.340625 -222.77625 108.61875 -223.5625 107.875 C-225.25 106.0625 -225.25 106.0625 -225.25 104.0625 C-225.91 104.0625 -226.57 104.0625 -227.25 104.0625 C-226.667617 100.526208 -225.433483 98.87553 -222.911957 96.370422 C-222.197081 95.652868 -221.482205 94.935313 -220.745667 94.196014 C-219.956096 93.4188 -219.166525 92.641586 -218.353027 91.84082 C-217.525318 91.014279 -216.697609 90.187739 -215.844818 89.336151 C-213.572901 87.070194 -211.294493 84.81101 -209.013225 82.554475 C-206.621854 80.185618 -204.239401 77.807828 -201.85611 75.430847 C-197.333462 70.922695 -192.803656 66.421813 -188.270871 61.923856 C-180.173239 53.888009 -172.087521 45.840185 -164.004783 37.789361 C-160.716886 34.515109 -157.423873 31.246057 -154.129486 27.978333 C-152.394017 26.252895 -150.65863 24.527375 -148.92334 22.801758 C-148.145914 22.032641 -147.368489 21.263524 -146.567505 20.4711 C-142.458203 16.378424 -138.527644 12.201008 -134.765863 7.785641 C-100.775071 -30.853011 -38.839845 -30.349275 0 0 Z " fill="#0B817B" transform="translate(539.25,92.9375)"/>
<path d="M0 0 C5.061858 4.181535 9.696422 8.63656 14.277344 13.339844 C16.302764 15.31877 18.323265 17.147895 20.473877 18.978271 C25.936306 23.742447 31.024234 28.879756 36.140625 34.007812 C37.195635 35.062147 38.250793 36.116333 39.306091 37.17038 C41.502887 39.365711 43.69789 41.562816 45.891602 43.76123 C48.694523 46.569869 51.501939 49.373965 54.310703 52.17676 C56.484724 54.347158 58.656347 56.519943 60.827263 58.693447 C61.861496 59.728344 62.896463 60.762508 63.932198 61.795902 C65.37944 63.24059 66.823413 64.688471 68.266602 66.137207 C69.086304 66.957705 69.906007 67.778204 70.750549 68.623566 C72.984688 70.983823 74.991709 73.446988 77 76 C77.536814 76.525696 78.073628 77.051392 78.626709 77.593018 C81.144935 80.173024 82.476638 83.483411 84.0625 86.6875 C84.238135 87.028779 84.238135 87.028779 85.126953 88.755859 C93.182031 104.881243 91.528151 124.256901 86 141 C84.206852 146.090382 82.152974 151.05103 80 156 C79.438061 157.309578 78.876849 158.619468 78.316406 159.929688 C77.881992 160.942891 77.447578 161.956094 77 163 C72.360059 159.115806 67.939202 155.091477 63.656738 150.817871 C63.065451 150.231549 62.474164 149.645227 61.86496 149.041138 C59.930662 147.121314 58.000159 145.197736 56.070312 143.273438 C55.737129 142.941668 55.737129 142.941668 54.051022 141.262714 C50.523654 137.75028 46.99913 134.235022 43.477051 130.717285 C39.867547 127.113253 36.248864 123.51859 32.627886 119.926092 C29.818969 117.135941 27.016921 114.338966 24.21661 111.54018 C22.886854 110.213421 21.554635 108.889126 20.219761 107.567516 C12.485667 99.904809 4.875051 92.233025 -1 83 C-1 82.34 -1 81.68 -1 81 C-1.66 81 -2.32 81 -3 81 C-12.804295 63.374302 -17.223772 45.244601 -12.4375 25.25 C-9.751646 16.338721 -5.84795 7.305494 0 0 Z " fill="#0B817B" transform="translate(272,235)"/>
<path d="" fill="#102C42" transform="translate(0,0)"/>
<path d="" fill="#102C42" transform="translate(0,0)"/>
<path d="" fill="#102C42" transform="translate(0,0)"/>
<path d="" fill="#102C42" transform="translate(0,0)"/>
<path d="" fill="#102C42" transform="translate(0,0)"/>
<path d="" fill="#102C42" transform="translate(0,0)"/>
<path d="" fill="#102C42" transform="translate(0,0)"/>
<path d="" fill="#102C42" transform="translate(0,0)"/>
<path d="" fill="#102C42" transform="translate(0,0)"/>
<path d="" fill="#102C42" transform="translate(0,0)"/>
<path d="" fill="#102C42" transform="translate(0,0)"/>
<path d="" fill="#102C42" transform="translate(0,0)"/>
<path d="" fill="#102C42" transform="translate(0,0)"/>
<path d="" fill="#102C42" transform="translate(0,0)"/>
<path d="" fill="#102C42" transform="translate(0,0)"/>
<path d="" fill="#102C42" transform="translate(0,0)"/>
<path d="" fill="#102C42" transform="translate(0,0)"/>
<path d="" fill="#102C42" transform="translate(0,0)"/>
<path d="" fill="#102C42" transform="translate(0,0)"/>
<path d="" fill="#102C42" transform="translate(0,0)"/>
<path d="" fill="#102C42" transform="translate(0,0)"/>
<path d="" fill="#102C42" transform="translate(0,0)"/>
<path d="" fill="#102C42" transform="translate(0,0)"/>
<path d="" fill="#102C42" transform="translate(0,0)"/>
<path d="" fill="#102C42" transform="translate(0,0)"/>
<path d="" fill="#102C42" transform="translate(0,0)"/>
<path d="" fill="#102C42" transform="translate(0,0)"/>
<path d="" fill="#102C42" transform="translate(0,0)"/>
<path d="" fill="#102C42" transform="translate(0,0)"/>
<path d="" fill="#102C42" transform="translate(0,0)"/>
<path d="" fill="#102C42" transform="translate(0,0)"/>
<path d="" fill="#102C42" transform="translate(0,0)"/>
<path d="" fill="#102C42" transform="translate(0,0)"/>
<path d="" fill="#102C42" transform="translate(0,0)"/>
<path d="" fill="#102C42" transform="translate(0,0)"/>
<path d="" fill="#102C42" transform="translate(0,0)"/>
<path d="" fill="#102C42" transform="translate(0,0)"/>
<path d="" fill="#102C42" transform="translate(0,0)"/>
<path d="" fill="#102C42" transform="translate(0,0)"/>
<path d="" fill="#102C42" transform="translate(0,0)"/>
<path d="" fill="#102C42" transform="translate(0,0)"/>
<path d="" fill="#102C42" transform="translate(0,0)"/>
<path d="" fill="#102C42" transform="translate(0,0)"/>
<path d="" fill="#102C42" transform="translate(0,0)"/>
<path d="" fill="#102C42" transform="translate(0,0)"/>
<path d="" fill="#102C42" transform="translate(0,0)"/>
<path d="" fill="#102C42" transform="translate(0,0)"/>
<path d="" fill="#102C42" transform="translate(0,0)"/>
<path d="" fill="#102C42" transform="translate(0,0)"/>
<path d="" fill="#102C42" transform="translate(0,0)"/>
<path d="" fill="#102C42" transform="translate(0,0)"/>
<path d="" fill="#102C42" transform="translate(0,0)"/>
<path d="" fill="#102C42" transform="translate(0,0)"/>
<path d="" fill="#102C42" transform="translate(0,0)"/>
<path d="" fill="#102C42" transform="translate(0,0)"/>
<path d="" fill="#102C42" transform="translate(0,0)"/>
<path d="" fill="#102C42" transform="translate(0,0)"/>
<path d="" fill="#102C42" transform="translate(0,0)"/>
<path d="" fill="#102C42" transform="translate(0,0)"/>
<path d="" fill="#102C42" transform="translate(0,0)"/>
<path d="" fill="#102C42" transform="translate(0,0)"/>
<path d="" fill="#102C42" transform="translate(0,0)"/>
<path d="" fill="#102C42" transform="translate(0,0)"/>
<path d="" fill="#102C42" transform="translate(0,0)"/>
<path d="" fill="#102C42" transform="translate(0,0)"/>
<path d="" fill="#102C42" transform="translate(0,0)"/>
<path d="" fill="#102C42" transform="translate(0,0)"/>
<path d="" fill="#102C42" transform="translate(0,0)"/>
<path d="" fill="#102C42" transform="translate(0,0)"/>
<path d="" fill="#102C42" transform="translate(0,0)"/>
<path d="" fill="#102C42" transform="translate(0,0)"/>
<path d="" fill="#102C42" transform="translate(0,0)"/>
<path d="" fill="#102C42" transform="translate(0,0)"/>
<path d="" fill="#102C42" transform="translate(0,0)"/>
<path d="" fill="#102C42" transform="translate(0,0)"/>
<path d="" fill="#102C42" transform="translate(0,0)"/>
<path d="" fill="#102C42" transform="translate(0,0)"/>
<path d="" fill="#102C42" transform="translate(0,0)"/>
<path d="" fill="#102C42" transform="translate(0,0)"/>
<path d="" fill="#102C42" transform="translate(0,0)"/>
<path d="" fill="#102C42" transform="translate(0,0)"/>
<path d="" fill="#102C42" transform="translate(0,0)"/>
</svg>
